<svg width="160" height="160" viewBox="0 0 160 160" fill="none" xmlns="http://www.w3.org/2000/svg">
<path d="M141.9 120.5C141.9 91.7 157.8 71.9 157.8 58C157.8 44.1 149.3 15 81.1 15C12.9 15 3 54.2 3 69.5C3 141 141.9 171.5 141.9 120.5Z" fill="#EFEFEF"/>
<path d="M76.1004 40.5999C81.6004 45.4999 82.5004 55.1999 76.7004 60.5999C71.1004 65.7999 61.8004 64.9999 56.3004 60.0999C49.5004 53.8999 53.9004 43.3999 43.9004 34.2999C54.1004 33.2999 66.5004 31.9999 76.1004 40.5999Z" fill="#F3F3F1"/>
<path d="M100.9 38.4C96.5001 42.1 95.4001 49 99.9001 53.8C103.6 57.7 111.3 57.5 115.7 53.8C121.1 49.2 118 41 126 34.2C118.1 33.3 108.6 32 100.9 38.4Z" fill="#F3F3F1"/>
<path d="M30.4004 83.5V118.9H42.6004L51.5004 88.1C51.5004 88.2 45.0004 83.5 30.4004 83.5Z" fill="#2FDF84"/>
<path d="M119.3 105.4C113.5 105.4 106.8 108 100.4 109.9V108.1C100.4 104.1 97.4004 100.7 93.3004 99.9002L50.5004 91.7002L43.9004 114.3C52.4004 118 74.3004 127.3 84.9004 127.3C98.2004 127.3 130.5 110.6 130.5 110.6C130.5 110.6 128.2 105.4 119.3 105.4Z" fill="#2FDF84"/>
<path d="M30.4004 83.5V118.9H42.6004L51.5004 88.1C51.5004 88.2 45.0004 83.5 30.4004 83.5Z" stroke="black" stroke-width="6.6671" stroke-miterlimit="10" stroke-linejoin="round"/>
<path d="M30.4004 83.5V118.9H40.4004V84.4C37.6004 83.9 34.3004 83.5 30.4004 83.5Z" fill="black" fill-opacity="0.2"/>
<path d="M60.0004 93.5002L50.5004 91.7002L43.9004 114.3L52.9004 118.1L60.0004 93.5002Z" fill="black" fill-opacity="0.2"/>
<path d="M66.3004 60.0999C59.5004 53.8999 63.9004 43.3999 53.9004 34.2999C55.7004 34.0999 57.6004 33.9999 59.6004 33.7999C54.2004 33.2999 48.8004 33.7999 43.9004 34.2999C53.9004 43.2999 49.5004 53.8999 56.3004 60.0999C60.5004 63.8999 66.9004 65.1999 72.2004 63.2999C70.0004 62.5999 68.0004 61.5999 66.3004 60.0999Z" fill="#D5DBE1"/>
<path d="M109.9 53.6999C105.4 48.8999 106.5 41.9999 110.9 38.2999C114.2 35.4999 118 34.1999 121.7 33.6999C114.8 32.9999 107.2 32.9999 100.9 38.2999C96.5001 41.9999 95.4001 48.8999 99.9001 53.6999C102.8 56.7999 108.3 57.2999 112.6 55.4999C111.6 55.0999 110.7 54.4999 109.9 53.6999Z" fill="#D5DBE1"/>
<path d="M100.9 38.4C96.5001 42.1 95.4001 49 99.9001 53.8C103.6 57.7 111.3 57.5 115.7 53.8C121.1 49.2 118 41 126 34.2C118.1 33.3 108.6 32 100.9 38.4Z" stroke="black" stroke-width="6.6671" stroke-miterlimit="10" stroke-linejoin="round"/>
<path d="M76.1004 40.5999C81.6004 45.4999 82.5004 55.1999 76.7004 60.5999C71.1004 65.7999 61.8004 64.9999 56.3004 60.0999C49.5004 53.8999 53.9004 43.3999 43.9004 34.2999C54.1004 33.2999 66.5004 31.9999 76.1004 40.5999Z" stroke="black" stroke-width="6.6671" stroke-miterlimit="10" stroke-linejoin="round"/>
<path d="M50.5 91.7002L72.6 95.9002" stroke="black" stroke-width="6.6671" stroke-miterlimit="10" stroke-linejoin="round"/>
<path d="M81.2002 97.6001C81.2002 97.6001 87.1002 98.7001 89.8002 99.3001C92.6002 99.8001 96.8002 100.6 98.2002 102.7C99.6002 104.8 100.5 106.6 100.3 109.9" stroke="black" stroke-width="6.6671" stroke-miterlimit="10" stroke-linejoin="round"/>
<path d="M43.9004 114.3C52.4004 118 74.3004 127.3 84.9004 127.3C98.2004 127.3 130.5 110.6 130.5 110.6C130.5 110.6 128.3 105.4 119.4 105.4C113.6 105.4 106.9 108 100.5 109.9C92.4004 111.9 86.0004 112.8 69.4004 107.5" stroke="black" stroke-width="6.6671" stroke-miterlimit="10" stroke-linejoin="round"/>
<path d="M133.7 80.6999C131.3 80.6999 129.3 78.6999 129.3 76.2999C129.3 73.8999 131.3 71.8999 133.7 71.8999C136.1 71.8999 138.1 73.8999 138.1 76.2999C138.2 78.6999 136.2 80.6999 133.7 80.6999Z" stroke="#A4AFC1" stroke-width="4.4391" stroke-miterlimit="10"/>
<path d="M71.0996 50.2002C74.6996 53.6002 86.1996 63.5002 88.7996 77.5002" stroke="black" stroke-width="6.6671" stroke-miterlimit="10" stroke-linejoin="round"/>
<path d="M108.2 50.2002C100.5 55.2002 90.4002 62.6002 88.7002 77.5002" stroke="black" stroke-width="6.6671" stroke-miterlimit="10" stroke-linejoin="round"/>
</svg>
