<svg width="92" height="92" viewBox="0 0 92 92" fill="none" xmlns="http://www.w3.org/2000/svg">
<rect x="45.7012" width="64.6317" height="64.6317" rx="8" transform="rotate(45 45.7012 0)" fill="#2FDF84"/>
<rect x="45.7012" width="64.6317" height="64.6317" rx="8" transform="rotate(45 45.7012 0)" stroke="white"/>
<path d="M43.4462 33.0313L44.986 31.5585C45.2984 31.2461 45.6777 31.0898 46.124 31.0898C46.5703 31.0898 46.9497 31.2461 47.2621 31.5585L60.2496 44.5459C60.562 44.8583 60.7182 45.2377 60.7182 45.684C60.7182 46.1303 60.562 46.5097 60.2496 46.8221L47.2621 59.8095C46.9497 60.1219 46.5703 60.2781 46.124 60.2781C45.6777 60.2781 45.2984 60.1219 44.986 59.8095L43.4462 58.3367C43.1338 58.0243 42.9888 57.645 43.0111 57.1987C43.0334 56.7524 43.2007 56.373 43.5132 56.0606L51.5466 48.3618H32.3333C31.887 48.3618 31.5076 48.2056 31.1952 47.8932C30.8828 47.5808 30.7266 47.2015 30.7266 46.7551V44.6129C30.7266 44.1666 30.8828 43.7872 31.1952 43.4748C31.5076 43.1624 31.887 43.0062 32.3333 43.0062H51.5466L43.5132 35.3075C43.2007 34.995 43.0334 34.6157 43.0111 34.1694C42.9888 33.7231 43.1338 33.3437 43.4462 33.0313V33.0313Z" fill="black"/>
</svg>
