<svg width="92" height="92" viewBox="0 0 92 92" fill="none" xmlns="http://www.w3.org/2000/svg">
<rect x="45.7021" y="91.4031" width="64.6317" height="64.6317" rx="8" transform="rotate(-135 45.7021 91.4031)" fill="#2FDF84"/>
<rect x="45.7021" y="91.4031" width="64.6317" height="64.6317" rx="8" transform="rotate(-135 45.7021 91.4031)" stroke="white"/>
<path d="M47.9571 58.3718L46.4174 59.8446C46.1049 60.157 45.7256 60.3132 45.2793 60.3132C44.833 60.3132 44.4536 60.157 44.1412 59.8446L31.1537 46.8572C30.8413 46.5447 30.6851 46.1654 30.6851 45.7191C30.6851 45.2728 30.8413 44.8934 31.1537 44.581L44.1412 31.5935C44.4536 31.2811 44.833 31.1249 45.2793 31.1249C45.7256 31.1249 46.1049 31.2811 46.4174 31.5935L47.9571 33.0663C48.2695 33.3788 48.4146 33.7581 48.3923 34.2044C48.3699 34.6507 48.2026 35.0301 47.8902 35.3425L39.8567 43.0412L59.0701 43.0412C59.5164 43.0412 59.8957 43.1974 60.2081 43.5099C60.5206 43.8223 60.6768 44.2016 60.6768 44.6479L60.6768 46.7902C60.6768 47.2365 60.5206 47.6159 60.2081 47.9283C59.8957 48.2407 59.5164 48.3969 59.0701 48.3969L39.8567 48.3969L47.8902 56.0956C48.2026 56.408 48.3699 56.7874 48.3923 57.2337C48.4146 57.68 48.2695 58.0594 47.9571 58.3718L47.9571 58.3718Z" fill="black"/>
</svg>
