<svg width="160" height="160" viewBox="0 0 160 160" fill="none" xmlns="http://www.w3.org/2000/svg">
<path d="M35.7017 21.1256C64.9081 21.1256 84.9646 6 99.0379 6C113.111 6 142.668 14.0884 142.668 78.8163C142.668 143.544 102.906 153.043 87.4263 153.043C14.9401 153.047 -16.0229 21.1256 35.7017 21.1256V21.1256Z" fill="#EFEFEF"/>
<path d="M41.0381 19.0244L47.0051 13.0499L49.9885 16.0372L44.0216 22.0117L41.0381 19.0244Z" fill="#A4AFC1"/>
<path d="M23.8809 36.1831L29.8478 30.2086L32.8313 33.1959L26.8643 39.1704L23.8809 36.1831Z" fill="#A4AFC1"/>
<path d="M23.8799 15.2905L26.8634 12.3033L32.8303 18.2778L29.8469 21.265L23.8799 15.2905Z" fill="#A4AFC1"/>
<path d="M142.668 65.0966C139.176 65.0966 136.334 62.2555 136.334 58.7643C136.334 55.2732 139.176 52.4321 142.668 52.4321C146.16 52.4321 149.001 55.2732 149.001 58.7643C149.001 62.2555 146.16 65.0966 142.668 65.0966ZM142.668 56.6536C141.506 56.6536 140.556 57.6034 140.556 58.7643C140.556 59.9252 141.506 60.8751 142.668 60.8751C143.829 60.8751 144.779 59.9252 144.779 58.7643C144.779 57.6034 143.829 56.6536 142.668 56.6536Z" fill="#A4AFC1"/>
<path d="M76.3313 122.791L123.833 66.5016L107.18 36.2505H76.3397H45.4823L28.8291 66.5016L76.3313 122.791Z" fill="#2FDF84"/>
<path d="M55.2266 66.8562L76.3386 36.2505L97.4507 66.8562H55.2266Z" fill="#2FDF84"/>
<path d="M107.185 36.2505L76.3363 122.791L45.4873 36.2505H107.185Z" fill="#2FDF84"/>
<path d="M37.2739 66.5016L53.9271 36.2505H45.4823L28.8291 66.5016L76.3313 122.791L80.5537 117.788L37.2739 66.5016Z" fill="black" fill-opacity="0.2"/>
<path d="M76.334 125.958C75.4009 125.958 74.5142 125.544 73.9146 124.831L26.4124 68.5416C25.5679 67.5411 25.4286 66.1227 26.0577 64.9745L42.7067 34.7234C43.2641 33.7102 44.3281 33.0854 45.4809 33.0854H107.183C108.336 33.0854 109.4 33.7102 109.957 34.7276L126.606 64.9787C127.235 66.1227 127.096 67.5411 126.251 68.5459L78.7493 124.835C78.1539 125.544 77.2672 125.958 76.334 125.958ZM32.6532 66.1227L76.334 117.882L120.015 66.1227L105.312 39.4177H47.3556L32.6532 66.1227Z" fill="black"/>
<path d="M94.8442 68.6551L76.3374 41.8277L57.8306 68.6509L52.6201 65.0542L73.7322 34.4485C74.9102 32.7346 77.7646 32.7346 78.9426 34.4485L100.055 65.0542L94.8442 68.6551Z" fill="black"/>
<path d="M28.8291 63.6909H123.833V70.0231H28.8291V63.6909Z" fill="black"/>
<path d="M76.3381 125.957C74.9996 125.957 73.8047 125.117 73.3571 123.855L42.5039 37.3146L48.466 35.187L76.3381 113.36L86.3917 85.1609L92.3537 87.2885L79.3191 123.855C78.8716 125.117 77.6766 125.957 76.3381 125.957V125.957Z" fill="black"/>
<path d="M88.7734 78.437L104.192 35.1562L110.153 37.2851L94.7347 80.566L88.7734 78.437Z" fill="black"/>
</svg>
