<svg width="195" height="22" viewBox="0 0 195 22" fill="none" xmlns="http://www.w3.org/2000/svg">
<path d="M20.0398 10.8182C20.0398 13.0852 19.599 14.9976 18.7173 16.5554C17.8357 18.1065 16.6458 19.2831 15.1477 20.0852C13.6496 20.8807 11.9792 21.2784 10.1364 21.2784C8.2803 21.2784 6.60322 20.8774 5.10511 20.0753C3.61364 19.2666 2.42708 18.0866 1.54545 16.5355C0.670455 14.9777 0.232955 13.072 0.232955 10.8182C0.232955 8.55114 0.670455 6.64205 1.54545 5.09091C2.42708 3.53314 3.61364 2.35653 5.10511 1.56108C6.60322 0.758995 8.2803 0.357954 10.1364 0.357954C11.9792 0.357954 13.6496 0.758995 15.1477 1.56108C16.6458 2.35653 17.8357 3.53314 18.7173 5.09091C19.599 6.64205 20.0398 8.55114 20.0398 10.8182ZM14.3523 10.8182C14.3523 9.59848 14.1899 8.57102 13.8651 7.7358C13.5469 6.89394 13.0729 6.25757 12.4432 5.8267C11.8201 5.3892 11.0511 5.17045 10.1364 5.17045C9.22159 5.17045 8.44934 5.3892 7.8196 5.8267C7.1965 6.25757 6.72254 6.89394 6.39773 7.7358C6.07955 8.57102 5.92045 9.59848 5.92045 10.8182C5.92045 12.0379 6.07955 13.0687 6.39773 13.9105C6.72254 14.7457 7.1965 15.3821 7.8196 15.8196C8.44934 16.2505 9.22159 16.4659 10.1364 16.4659C11.0511 16.4659 11.8201 16.2505 12.4432 15.8196C13.0729 15.3821 13.5469 14.7457 13.8651 13.9105C14.1899 13.0687 14.3523 12.0379 14.3523 10.8182ZM22.5977 21V0.636363H36.9158V5.09091H28.1261V8.59091H36.0408V13.0455H28.1261V21H22.5977ZM38.9492 21V0.636363H53.2674V5.09091H44.4776V8.59091H52.3924V13.0455H44.4776V21H38.9492ZM55.3008 21V0.636363H69.9769V5.09091H60.8292V8.59091H69.2212V13.0455H60.8292V16.5455H69.9371V21H55.3008ZM72.7188 21V0.636363H81.5085C83.0199 0.636363 84.3423 0.911458 85.4759 1.46165C86.6094 2.01184 87.491 2.80398 88.1207 3.83807C88.7505 4.87216 89.0653 6.11174 89.0653 7.55682C89.0653 9.01515 88.7405 10.2448 88.0909 11.2457C87.4479 12.2467 86.5431 13.0024 85.3764 13.5128C84.2164 14.0232 82.8608 14.2784 81.3097 14.2784H76.0597V9.98295H80.196C80.8456 9.98295 81.3991 9.90341 81.8565 9.74432C82.3205 9.5786 82.6752 9.31676 82.9205 8.95881C83.1723 8.60085 83.2983 8.13352 83.2983 7.55682C83.2983 6.97348 83.1723 6.49953 82.9205 6.13494C82.6752 5.76373 82.3205 5.49195 81.8565 5.3196C81.3991 5.14062 80.8456 5.05114 80.196 5.05114H78.2472V21H72.7188ZM84.6506 11.6534L89.7415 21H83.7358L78.7642 11.6534H84.6506ZM91.4219 0.636363H98.3026L103.036 12.1705H103.274L108.007 0.636363H114.888V21H109.479V9.22727H109.32L104.786 20.8409H101.524L96.9901 9.14773H96.831V21H91.4219V0.636363ZM122.798 21H116.832L123.553 0.636363H131.11L137.832 21H131.866L127.411 6.24432H127.252L122.798 21ZM121.684 12.9659H132.9V17.1023H121.684V12.9659ZM139.793 21V0.636363H145.321V8.86932H145.6L151.725 0.636363H158.168L151.287 9.70455L158.327 21H151.725L147.151 13.3636L145.321 15.75V21H139.793ZM159.809 21V0.636363H174.485V5.09091H165.337V8.59091H173.729V13.0455H165.337V16.5455H174.445V21H159.809ZM177.227 21V0.636363H186.016C187.528 0.636363 188.85 0.911458 189.984 1.46165C191.117 2.01184 191.999 2.80398 192.629 3.83807C193.258 4.87216 193.573 6.11174 193.573 7.55682C193.573 9.01515 193.248 10.2448 192.599 11.2457C191.956 12.2467 191.051 13.0024 189.884 13.5128C188.724 14.0232 187.369 14.2784 185.817 14.2784H180.567V9.98295H184.704C185.353 9.98295 185.907 9.90341 186.364 9.74432C186.828 9.5786 187.183 9.31676 187.428 8.95881C187.68 8.60085 187.806 8.13352 187.806 7.55682C187.806 6.97348 187.68 6.49953 187.428 6.13494C187.183 5.76373 186.828 5.49195 186.364 5.3196C185.907 5.14062 185.353 5.05114 184.704 5.05114H182.755V21H177.227ZM189.158 11.6534L194.249 21H188.244L183.272 11.6534H189.158Z" fill="url(#paint0_linear_148_16427)"/>
<defs>
<linearGradient id="paint0_linear_148_16427" x1="98.5" y1="-11" x2="285.5" y2="-86.5" gradientUnits="userSpaceOnUse">
<stop stop-color="white"/>
<stop offset="1" stop-color="white" stop-opacity="0"/>
</linearGradient>
</defs>
</svg>
