<svg width="160" height="160" viewBox="0 0 160 160" fill="none" xmlns="http://www.w3.org/2000/svg">
<path d="M37.2309 141.48C67.9731 141.48 89.0842 157.405 103.898 157.405C118.711 157.405 149.822 148.889 149.822 80.7424C149.822 12.5958 107.969 2.59131 91.6753 2.59131C15.3776 2.59131 -17.2136 141.48 37.2309 141.48V141.48Z" fill="#EFEFEF"/>
<path d="M124.294 51.8955L127.437 48.7528L133.722 55.0382L130.579 58.1809L124.294 51.8955Z" fill="#A4AFC1"/>
<path d="M106.226 33.8286L109.368 30.6859L115.654 36.9713L112.511 40.114L106.226 33.8286Z" fill="#A4AFC1"/>
<path d="M124.305 37.7773L130.59 31.4919L133.733 34.6346L127.447 40.92L124.305 37.7773Z" fill="#A4AFC1"/>
<path d="M94.4444 112.222H30V96.6668C30 89.3024 35.9689 83.3335 43.3333 83.3335H81.1111C88.4756 83.3335 94.4444 89.3024 94.4444 96.6668V112.222Z" fill="#F3F3F1"/>
<path d="M62.2223 67.7777C71.4271 67.7777 78.889 60.3158 78.889 51.111C78.889 41.9063 71.4271 34.4443 62.2223 34.4443C53.0176 34.4443 45.5557 41.9063 45.5557 51.111C45.5557 60.3158 53.0176 67.7777 62.2223 67.7777Z" fill="#F3F3F1"/>
<path d="M78.8441 50.2221C71.2885 51.3777 66.6663 43.3332 66.6663 43.3332C58.8441 50.6221 48.9329 50.4443 45.5996 50.1332C46.0885 41.3777 53.3329 34.4443 62.2218 34.4443C71.1107 34.4443 78.3996 41.4221 78.8441 50.2221Z" fill="#2FDF84"/>
<path d="M121.511 101.111H110.4C110.4 101.111 112.489 98.0001 112.489 92.8001C112.489 86.5779 109.377 83.4224 107.289 83.4224C105.244 83.4224 103.066 85.5557 103.066 90.7557C103.066 96.2135 96.6352 101.427 93.773 103.347C92.9997 102.036 91.6352 101.111 89.9997 101.111H87.7775C85.3241 101.111 83.333 103.102 83.333 105.556V125.556C83.333 128.009 85.3241 130 87.7775 130H89.9997C92.4441 130 94.4441 128 94.4441 125.556V124.4C96.933 125.822 104.711 130 116.622 130H118.889C123.066 130 126.844 126.978 127.511 122.889C127.555 122.889 130 110.8 130 109.6C130 105.022 126.266 101.111 121.511 101.111V101.111Z" fill="#2FDF84"/>
<path d="M93.333 125.555V105.555C93.333 104.595 93.7019 103.755 94.2174 103.031C94.0752 103.133 93.9019 103.262 93.773 103.346C92.9997 102.035 91.6352 101.111 89.9997 101.111H87.7774C85.3241 101.111 83.333 103.102 83.333 105.555V125.555C83.333 128.009 85.3241 130 87.7774 130H89.9997C91.7019 130 93.1374 129 93.8841 127.586C93.5641 126.969 93.333 126.302 93.333 125.555Z" fill="#00B871"/>
<path d="M97.7777 101.111H99.9999C101.635 101.111 103 102.036 103.773 103.347C106.12 101.773 110.818 97.969 112.449 93.649C112.462 93.3646 112.489 93.0979 112.489 92.8001C112.489 86.5779 109.378 83.4224 107.289 83.4224C105.244 83.4224 103.067 85.5557 103.067 90.7557C103.067 94.8846 99.391 98.8668 96.3555 101.4C96.8088 101.245 97.2755 101.111 97.7777 101.111Z" fill="#00B871"/>
<path d="M53.3333 83.3335H43.3333C35.9689 83.3335 30 89.3024 30 96.6668V112.222H40V96.6668C40 89.3024 45.9689 83.3335 53.3333 83.3335Z" fill="#D5DBE1"/>
<path d="M55.5557 51.111C55.5557 43.6621 60.4757 37.4266 67.2223 35.2932C65.6357 34.791 63.9779 34.4443 62.2223 34.4443C53.0179 34.4443 45.5557 41.9066 45.5557 51.111C45.5557 60.3154 53.0179 67.7777 62.2223 67.7777C63.9779 67.7777 65.6357 67.431 67.2223 66.9288C60.4757 64.7954 55.5557 58.5599 55.5557 51.111Z" fill="#D5DBE1"/>
<path d="M67.2129 35.2843C65.6307 34.7821 63.9729 34.4443 62.2218 34.4443C53.3329 34.4443 46.0885 41.3777 45.5996 50.1332C47.4441 50.3066 51.3285 50.3866 55.7374 49.231C56.4752 42.6177 61.0485 37.2354 67.2129 35.2843V35.2843Z" fill="#00B871"/>
<path d="M71.1114 115.556H30.0003C28.1603 115.556 26.667 114.062 26.667 112.222V96.6667C26.667 87.4756 34.147 80 43.3337 80H82.2226C84.8403 80 87.3292 80.5822 89.6226 81.7289L92.6048 83.2178L89.6226 89.1822L86.6448 87.6933C85.2803 87.0133 83.7959 86.6667 82.2226 86.6667H43.3337C37.8225 86.6667 33.3337 91.1511 33.3337 96.6667V108.889H71.1114V115.556Z" fill="black"/>
<path d="M77.3242 53.6711C72.1642 53.6711 68.342 50.5867 66.0931 48.0933C57.7153 54.0356 48.2531 53.7378 45.2842 53.4534L45.9108 46.8178C48.502 47.0622 57.4753 47.3467 64.3908 40.8978C65.1375 40.2045 66.1553 39.8889 67.1597 40.04C68.1686 40.1911 69.0486 40.7911 69.5553 41.6756C69.582 41.72 73.1464 47.68 78.342 46.9289L79.3508 53.5156C78.6531 53.6222 77.9775 53.6711 77.3242 53.6711Z" fill="black"/>
<path d="M62.2227 71.1108C51.196 71.1108 42.2227 62.1375 42.2227 51.1108C42.2227 40.0842 51.196 31.1108 62.2227 31.1108C73.2493 31.1108 82.2227 40.0842 82.2227 51.1108C82.2227 62.1375 73.2493 71.1108 62.2227 71.1108ZM62.2227 37.7775C54.8715 37.7775 48.8893 43.7597 48.8893 51.1108C48.8893 58.462 54.8715 64.4442 62.2227 64.4442C69.5738 64.4442 75.556 58.462 75.556 51.1108C75.556 43.7597 69.5738 37.7775 62.2227 37.7775Z" fill="black"/>
<path d="M90 133.333H87.7778C83.4889 133.333 80 129.845 80 125.556V105.556C80 101.267 83.4889 97.7778 87.7778 97.7778H90C94.2889 97.7778 97.7778 101.267 97.7778 105.556V125.556C97.7778 129.845 94.2889 133.333 90 133.333ZM87.7778 104.444C87.1644 104.444 86.6667 104.942 86.6667 105.556V125.556C86.6667 126.169 87.1644 126.667 87.7778 126.667H90C90.6044 126.667 91.1111 126.16 91.1111 125.556V105.556C91.1111 104.942 90.6133 104.444 90 104.444H87.7778Z" fill="black"/>
<path d="M118.889 133.333H116.622C104.351 133.333 97.1197 130.244 93.9019 128.409L97.2086 122.618C99.3374 123.836 105.493 126.667 116.622 126.667H118.889C121.484 126.667 123.826 124.769 124.222 122.351C124.244 122.227 124.271 122.102 124.306 121.982C124.622 120.604 126.569 110.796 126.671 109.484C126.666 106.76 124.351 104.444 121.511 104.444H110.4C109.169 104.444 108.04 103.764 107.457 102.68C106.88 101.591 106.946 100.276 107.631 99.2533C108.315 98.2311 109.155 96.8044 109.155 92.8C109.155 88.8133 107.586 86.9466 107.022 86.72C107.209 86.8489 106.404 87.8711 106.404 90.7555C106.404 98.2044 99.1819 103.516 96.0752 105.449L92.5508 99.7955C96.0219 97.6266 99.7374 94.1155 99.7374 90.7555C99.7374 83.3866 103.533 80.0889 107.289 80.0889C111.48 80.0889 115.822 84.8444 115.822 92.8C115.822 94.6978 115.586 96.3689 115.253 97.7778H121.511C128.031 97.7778 133.333 103.08 133.333 109.6C133.333 110.009 133.333 110.698 132.044 117.329C131.493 120.16 131.12 122.093 130.746 123.418L130.804 123.427C129.88 129.076 124.755 133.333 118.889 133.333V133.333Z" fill="black"/>
</svg>
